<svg xmlns="http://www.w3.org/2000/svg" viewBox="0 0 512 512" role="img" aria-label="Emma Kwon favicon">
  <defs>
    <radialGradient id="pearl" cx="34%" cy="28%" r="82%">
      <stop offset="0%" stop-color="#fffdfb"/>
      <stop offset="30%" stop-color="#f9e8f5"/>
      <stop offset="58%" stop-color="#d9e7ff"/>
      <stop offset="80%" stop-color="#d8c6f0"/>
      <stop offset="100%" stop-color="#b9dded"/>
    </radialGradient>
    <linearGradient id="rim" x1="70" y1="50" x2="445" y2="462" gradientUnits="userSpaceOnUse">
      <stop offset="0%" stop-color="#eefcff"/>
      <stop offset="28%" stop-color="#97dcec"/>
      <stop offset="55%" stop-color="#dca3e4"/>
      <stop offset="76%" stop-color="#ffb6d4"/>
      <stop offset="100%" stop-color="#8ea8e5"/>
    </linearGradient>
    <linearGradient id="shine" x1="128" y1="88" x2="366" y2="410" gradientUnits="userSpaceOnUse">
      <stop offset="0%" stop-color="#ffffff" stop-opacity="0.72"/>
      <stop offset="55%" stop-color="#ffffff" stop-opacity="0"/>
    </linearGradient>
  </defs>

  <circle cx="256" cy="256" r="232" fill="url(#pearl)" stroke="url(#rim)" stroke-width="12"/>
  <ellipse cx="206" cy="175" rx="126" ry="96" fill="url(#shine)"/>

  <!-- Refined E monogram, simplified for favicon legibility -->
  <path fill="#1e2d5b" d="M144 131h168v31H185v79h105v30H185v80h137v31H144v-18h17V149h-17z"/>
  <path fill="#1e2d5b" d="M139 124h57v12h-57zm0 252h61v12h-61z"/>

  <!-- Four-point signature star -->
  <path fill="#1e2d5b" d="M353 199c5 31 12 38 43 43-31 5-38 12-43 43-5-31-12-38-43-43 31-5 38-12 43-43z"/>
  <circle cx="353" cy="242" r="5" fill="#fffdfb"/>
</svg>
